<svg width="72" height="72" viewBox="0 0 72 72" fill="none" xmlns="http://www.w3.org/2000/svg">
<rect width="72" height="72" rx="36" fill="#001E3F"/>
<path fill-rule="evenodd" clip-rule="evenodd" d="M22.3167 28.9716C21.4804 29.6998 21.0002 30.7544 21.0002 31.8633V48.2491C21.0002 51.4252 23.575 54 26.7511 54H36.0002L41.6393 48.1177V44.1177H45.4739L51.0002 38.353V31.8633C51.0002 30.7544 50.52 29.6998 49.6837 28.9716L39.7763 20.3464C37.6116 18.4619 34.3888 18.4619 32.2241 20.3464L22.3167 28.9716ZM34.8808 25.6985L26.4132 33.0592V48.1179H38.7064V40.5885H45.3605V33.0592L36.893 25.6985C36.316 25.1969 35.4577 25.1969 34.8808 25.6985Z" fill="#FFAF00"/>
<path d="M36 42.1869C36 40.0695 37.7165 38.353 39.8339 38.353H51L45.4737 44.1177H41.6391V48.1177L36 54V42.1869Z" fill="#004FA7"/>
<rect x="21" y="18" width="5.63908" height="5.88233" fill="#004FA7"/>
</svg>
