<svg width="72" height="72" viewBox="0 0 72 72" fill="none" xmlns="http://www.w3.org/2000/svg">
<rect width="72.0001" height="71.9995" rx="35.9998" fill="#FCFCFC"/>
<rect x="0.5" y="0.5" width="71.0001" height="70.9995" rx="35.4998" stroke="#2D2D2D" stroke-opacity="0.12"/>
<path fill-rule="evenodd" clip-rule="evenodd" d="M22.3167 28.9683C21.4804 29.6964 21.0002 30.751 21.0002 31.8599V48.2458C21.0002 51.4219 23.575 53.9967 26.7511 53.9967H36.0002L41.6393 48.1144V44.1144H45.4739L51.0002 38.3497V31.8599C51.0002 30.751 50.52 29.6964 49.6837 28.9683L39.7763 20.3431C37.6116 18.4585 34.3888 18.4585 32.2241 20.3431L22.3167 28.9683ZM34.8808 25.6969L26.4132 33.0575V48.1163H38.7064V40.5869H45.3605V33.0575L36.893 25.6969C36.316 25.1953 35.4577 25.1953 34.8808 25.6969Z" fill="#FFAF00"/>
<path d="M36 42.1855C36 40.0681 37.7165 38.3516 39.8339 38.3516H51L45.4737 44.1162H41.6391V48.1162L36 53.9986V42.1855Z" fill="#004FA7"/>
<rect x="21" y="18" width="5.63908" height="5.88233" fill="#004FA7"/>
</svg>
